<svg xmlns="http://www.w3.org/2000/svg" viewBox="0 0 372.07 221.04"><defs><style>.cls-1{font-size:60.18px;font-family:SequelSans-MediumBody, Sequel Sans;font-weight:500;letter-spacing:-0.05em;}.cls-1,.cls-8{fill:#fff;}.cls-2{letter-spacing:-0.02em;}.cls-3{letter-spacing:-0.03em;}.cls-4{letter-spacing:-0.04em;}.cls-5{letter-spacing:-0.03em;}.cls-6{letter-spacing:-0.05em;}.cls-7{fill:#f22f2f;}.cls-9{fill:#ff9c39;}</style></defs><g id="Layer_2" data-name="Layer 2"><g id="Layer_1-2" data-name="Layer 1"><rect x="3.54" y="13.09" width="333.01" height="102.32" transform="translate(-4.58 13.74) rotate(-4.57)"/><text class="cls-1" transform="translate(23.89 79.47) rotate(-4.57)">ev<tspan class="cls-2" x="65.96" y="0">e</tspan><tspan class="cls-3" x="100.8" y="0">n</tspan><tspan class="cls-4" x="135.95" y="0">t</tspan><tspan class="cls-5" x="156.95" y="0">s </tspan><tspan class="cls-6" x="203.23" y="0">b</tspan><tspan class="cls-2" x="239.16" y="0">y</tspan></text><path class="cls-7" d="M366.63,199.65a2.85,2.85,0,0,1-.1-.48l0-.15,0-.14c-.12-.65-.25-1.31-.4-2l-12.64-71.25-2.51-14.16H318.18V79.18l-17.18,0-67.38.11-17.12,0v32.05l-51.63.08V86.83l-17.17,0L36.59,87,19.45,87v64.15H36.76l.08,52.78,0,17.13H182.56l0-.11h32.56V221h157Z"/><path class="cls-8" d="M56.34,134H39.06V104.1L150.18,104v29l-44.89,1-16,69.91H56.45Z"/><path class="cls-8" d="M162.22,200.15q.22,1,.39,1.92c.1.61.23,1.22.38,1.8H135.75l-2.18-15.64h-8.21l-2,15.64H96.05l14-64.55h39.48Zm-24-20.78-8.92-27.62-8.7,27.62Z"/><path class="cls-8" d="M232.55,151.59l-29.31,23.62,28.88-.11v28.66H163.86V186.15l32-27.45H165.18V128.62l67.37-.11Z"/><path class="cls-8" d="M352.09,202.06c-.12-.62-.25-1.25-.39-1.9L339,128.62H299.52l-2.07,11.13,8.81,0v35.09H290.93l-5.4,29.06h27.33l2-15.64H323l2.19,15.64h27.23C352.31,203.28,352.19,202.68,352.09,202.06ZM312,179.37l6.75-29.57,7,29.57Z"/><polygon class="cls-9" points="234.7 174.81 234.7 203.87 283.38 203.87 288.74 174.81 234.7 174.81"/><path class="cls-8" d="M303.48,119.42l-29.31,23.63,28.88-.11V171.6H234.79V154l32-27.45H236.11V96.46l67.37-.11Z"/></g></g></svg>